<?xml version="1.0" encoding="utf-8"?>
<!-- Generator: Adobe Illustrator 16.0.0, SVG Export Plug-In . SVG Version: 6.00 Build 0)  -->
<!DOCTYPE svg PUBLIC "-//W3C//DTD SVG 1.1//EN" "http://www.w3.org/Graphics/SVG/1.1/DTD/svg11.dtd">
<svg version="1.1" id="Layer_1" focusable="false" xmlns="http://www.w3.org/2000/svg" xmlns:xlink="http://www.w3.org/1999/xlink"
	 x="0px" y="0px" width="850.389px" height="1190.551px" viewBox="0 0 850.389 1190.551"
	 enable-background="new 0 0 850.389 1190.551" xml:space="preserve">
<path fill="#FFFFFF" d="M358.758,170.08h132.873c22.09,0,39.862,17.772,39.862,39.862v279.034h145.662
	c29.564,0,44.347,35.71,23.419,56.638L447.949,798.405c-12.457,12.457-32.887,12.457-45.344,0L149.649,545.614
	c-20.928-20.928-6.146-56.638,23.419-56.638h145.828V209.942C318.896,187.852,336.667,170.08,358.758,170.08z M850.389,794.586
	v186.022c0,22.09-17.771,39.862-39.861,39.862H39.862C17.772,1020.47,0,1002.698,0,980.608V794.586
	c0-22.091,17.771-39.862,39.861-39.862h243.657l81.385,81.385c33.384,33.385,87.198,33.385,120.582,0l81.385-81.385h243.657
	C832.617,754.723,850.389,772.495,850.389,794.586z M644.436,940.746c0-18.27-14.948-33.219-33.219-33.219
	c-18.27,0-33.218,14.949-33.218,33.219c0,18.271,14.948,33.219,33.218,33.219C629.488,973.965,644.436,959.016,644.436,940.746z
	 M750.735,940.746c0-18.27-14.948-33.219-33.219-33.219c-18.27,0-33.218,14.949-33.218,33.219c0,18.271,14.948,33.219,33.218,33.219
	C735.786,973.965,750.735,959.016,750.735,940.746z"/>
</svg>
